<?xml version="1.0" encoding="utf-8"?>
<!-- Generator: Adobe Illustrator 18.1.1, SVG Export Plug-In . SVG Version: 6.00 Build 0)  -->
<svg version="1.1" id="Lag_1" xmlns="http://www.w3.org/2000/svg" xmlns:xlink="http://www.w3.org/1999/xlink" x="0px" y="0px"
	 viewBox="0 0 200 98" enable-background="new 0 0 200 98" xml:space="preserve">
<g>
	<path fill="#00486E" d="M46.6,13.5c0-1.2-0.9-2.1-2.1-2.1c0,0,0,0,0,0l0,0h-5.6l0,0c-1.2,0-2.1,1-2.1,2.1c0,0,0,0,0,0l0,0V43
		L10.5,12.2l0,0c-0.4-0.5-1-0.8-1.6-0.8l0,0H2.1l0,0c-1.2,0-2.1,1-2.1,2.1c0,0,0,0,0,0l0,0V56l0,0c0,0,0,0,0,0
		c0,1.2,0.9,2.1,2.1,2.1c0,0,0,0,0,0h5.5l0,0c0,0,0,0,0.1,0c1.2,0,2.1-0.9,2.1-2.1c0,0,0,0,0,0l0,0V26.6l26.2,30.7
		c0.4,0.5,1,0.8,1.6,0.8l0,0h0c0,0,0,0,0,0c0,0,0,0,0,0h6.7c0,0,0,0,0,0h0.1l0,0c1.1,0,2.1-1,2.1-2.1h0L46.6,13.5L46.6,13.5z"/>
	<path fill="#00486E" d="M90.1,13.5c0-1.2,0.9-2.1,2.1-2.1c0,0,0,0,0,0l0,0h5.6l0,0c1.2,0,2.1,1,2.1,2.1c0,0,0,0,0,0l0,0V43
		l26.3-30.8l0,0c0.4-0.5,1-0.8,1.6-0.8l0,0h6.8l0,0c1.2,0,2.1,1,2.1,2.1c0,0,0,0,0,0l0,0V56l0,0c0,0,0,0,0,0c0,1.2-0.9,2.1-2.1,2.1
		c0,0,0,0,0,0H129l0,0c0,0,0,0-0.1,0c-1.2,0-2.1-0.9-2.1-2.1c0,0,0,0,0,0l0,0V26.6l-26.2,30.7c-0.4,0.5-1,0.8-1.6,0.8l0,0h0
		c0,0,0,0,0,0c0,0,0,0,0,0h-6.7c0,0,0,0,0,0h-0.1l0,0c-1.1,0-2.1-1-2.1-2.1h0L90.1,13.5L90.1,13.5z"/>
	<path fill="#00486E" d="M73.1,28.3c0-1.1-1-2.1-2.1-2.1l0,0h-5.6l0,0c-1.2,0-2.1,0.9-2.1,2.1h0v27.7l0,0c0,1.2,0.9,2.1,2.1,2.1l0,0
		H71l0,0h0c1.2,0,2.1-0.9,2.1-2.1c0,0,0,0,0,0l0,0L73.1,28.3L73.1,28.3z"/>
	<path fill="#D3D622" d="M73.1,13.5c0-1.1-1-2.1-2.1-2.1l0,0h-5.6l0,0c-1.2,0-2.1,0.9-2.1,2.1h0v5.7l0,0c0,1.2,0.9,2.1,2.1,2.1l0,0
		H71l0,0h0c1.2,0,2.1-0.9,2.1-2.1c0,0,0,0,0,0l0,0L73.1,13.5L73.1,13.5z"/>
	<g>
		<path d="M0,83.7V75h1v8.7H0z"/>
		<path d="M8.1,83.7v-4.2c0-0.5-0.1-0.9-0.4-1.2c-0.2-0.3-0.6-0.4-1.1-0.4c-0.7,0-1.2,0.2-1.5,0.6c-0.3,0.4-0.5,1-0.5,1.8v3.4h-1
			v-6.5h0.8l0.2,0.9h0c0.2-0.3,0.5-0.6,0.8-0.7C5.8,77.1,6.2,77,6.7,77c0.8,0,1.4,0.2,1.8,0.6C8.8,78,9,78.6,9,79.4v4.2H8.1z"/>
		<path d="M14.4,77.9h-1.7v5.7h-1v-5.7h-1.2v-0.4l1.2-0.4v-0.4c0-1.6,0.7-2.4,2.1-2.4c0.3,0,0.7,0.1,1.2,0.2l-0.3,0.8
			c-0.4-0.1-0.7-0.2-1-0.2c-0.4,0-0.6,0.1-0.8,0.4c-0.2,0.2-0.3,0.6-0.3,1.2v0.4h1.7V77.9z"/>
		<path d="M21.5,80.4c0,1.1-0.3,1.9-0.8,2.5c-0.5,0.6-1.3,0.9-2.2,0.9c-0.6,0-1.1-0.1-1.5-0.4c-0.5-0.3-0.8-0.7-1-1.2
			c-0.2-0.5-0.4-1.1-0.4-1.8c0-1.1,0.3-1.9,0.8-2.5c0.5-0.6,1.3-0.9,2.2-0.9c0.9,0,1.6,0.3,2.2,0.9C21.3,78.6,21.5,79.4,21.5,80.4z
			 M16.6,80.4c0,0.8,0.2,1.5,0.5,1.9c0.3,0.4,0.8,0.7,1.5,0.7c0.6,0,1.1-0.2,1.5-0.6c0.3-0.4,0.5-1.1,0.5-1.9c0-0.8-0.2-1.5-0.5-1.9
			c-0.3-0.4-0.8-0.6-1.5-0.6c-0.6,0-1.1,0.2-1.5,0.6C16.7,78.9,16.6,79.6,16.6,80.4z"/>
		<path d="M26.6,77c0.3,0,0.5,0,0.8,0.1L27.2,78c-0.3-0.1-0.5-0.1-0.7-0.1c-0.5,0-1,0.2-1.4,0.6c-0.4,0.4-0.6,1-0.6,1.6v3.5h-1v-6.5
			h0.8l0.1,1.2h0c0.2-0.4,0.5-0.7,0.9-1C25.8,77.2,26.2,77,26.6,77z"/>
		<path d="M37.2,83.7v-4.2c0-0.5-0.1-0.9-0.3-1.2c-0.2-0.3-0.6-0.4-1-0.4c-0.6,0-1.1,0.2-1.4,0.5c-0.3,0.4-0.4,0.9-0.4,1.6v3.6h-1
			v-4.2c0-0.5-0.1-0.9-0.3-1.2c-0.2-0.3-0.6-0.4-1-0.4c-0.6,0-1.1,0.2-1.4,0.6c-0.3,0.4-0.4,1-0.4,1.8v3.4h-1v-6.5h0.8l0.2,0.9h0
			c0.2-0.3,0.4-0.6,0.8-0.7c0.3-0.2,0.7-0.3,1.1-0.3c1,0,1.7,0.4,2,1.1h0c0.2-0.3,0.5-0.6,0.8-0.8c0.4-0.2,0.8-0.3,1.3-0.3
			c0.7,0,1.3,0.2,1.7,0.6c0.4,0.4,0.5,1,0.5,1.8v4.2H37.2z"/>
		<path d="M44.6,83.7l-0.2-0.9h0c-0.3,0.4-0.6,0.7-1,0.8c-0.3,0.1-0.7,0.2-1.2,0.2c-0.6,0-1.2-0.2-1.5-0.5c-0.4-0.3-0.5-0.8-0.5-1.4
			c0-1.3,1.1-2,3.2-2.1l1.1,0v-0.4c0-0.5-0.1-0.9-0.3-1.1c-0.2-0.2-0.6-0.4-1.1-0.4c-0.5,0-1.2,0.2-1.8,0.5l-0.3-0.8
			c0.3-0.2,0.7-0.3,1.1-0.4c0.4-0.1,0.8-0.1,1.1-0.1c0.8,0,1.4,0.2,1.7,0.5c0.4,0.3,0.6,0.9,0.6,1.7v4.4H44.6z M42.4,83
			c0.6,0,1.1-0.2,1.4-0.5c0.4-0.3,0.5-0.8,0.5-1.4v-0.6l-1,0c-0.8,0-1.3,0.1-1.7,0.4c-0.3,0.2-0.5,0.6-0.5,1c0,0.4,0.1,0.6,0.3,0.8
			C41.7,82.9,42,83,42.4,83z"/>
		<path d="M49.8,83c0.2,0,0.3,0,0.5,0c0.2,0,0.3-0.1,0.4-0.1v0.8c-0.1,0.1-0.3,0.1-0.5,0.1c-0.2,0-0.4,0.1-0.6,0.1
			c-1.3,0-1.9-0.7-1.9-2v-3.9h-0.9v-0.5l0.9-0.4l0.4-1.4h0.6v1.5h1.9v0.8h-1.9v3.8c0,0.4,0.1,0.7,0.3,0.9C49.2,82.9,49.5,83,49.8,83
			z"/>
		<path d="M52.3,75.4c0-0.2,0.1-0.4,0.2-0.5c0.1-0.1,0.2-0.2,0.4-0.2c0.2,0,0.3,0.1,0.4,0.2c0.1,0.1,0.2,0.3,0.2,0.5
			s-0.1,0.4-0.2,0.5c-0.1,0.1-0.3,0.2-0.4,0.2c-0.2,0-0.3-0.1-0.4-0.2C52.3,75.8,52.3,75.6,52.3,75.4z M53.3,83.7h-1v-6.5h1V83.7z"
			/>
		<path d="M61.4,80.4c0,1.1-0.3,1.9-0.8,2.5c-0.5,0.6-1.3,0.9-2.2,0.9c-0.6,0-1.1-0.1-1.5-0.4c-0.5-0.3-0.8-0.7-1-1.2
			c-0.2-0.5-0.4-1.1-0.4-1.8c0-1.1,0.3-1.9,0.8-2.5c0.5-0.6,1.3-0.9,2.2-0.9c0.9,0,1.6,0.3,2.2,0.9C61.1,78.6,61.4,79.4,61.4,80.4z
			 M56.4,80.4c0,0.8,0.2,1.5,0.5,1.9c0.3,0.4,0.8,0.7,1.5,0.7c0.6,0,1.1-0.2,1.5-0.6c0.3-0.4,0.5-1.1,0.5-1.9c0-0.8-0.2-1.5-0.5-1.9
			c-0.3-0.4-0.8-0.6-1.5-0.6c-0.6,0-1.1,0.2-1.5,0.6C56.6,78.9,56.4,79.6,56.4,80.4z"/>
		<path d="M67.9,83.7v-4.2c0-0.5-0.1-0.9-0.4-1.2c-0.2-0.3-0.6-0.4-1.1-0.4c-0.7,0-1.2,0.2-1.5,0.6c-0.3,0.4-0.5,1-0.5,1.8v3.4h-1
			v-6.5h0.8l0.2,0.9h0c0.2-0.3,0.5-0.6,0.8-0.7c0.4-0.2,0.8-0.3,1.2-0.3c0.8,0,1.4,0.2,1.8,0.6c0.4,0.4,0.6,1,0.6,1.8v4.2H67.9z"/>
		<path d="M74.7,79.4c0-0.3,0.1-0.5,0.2-0.6c0.1-0.1,0.3-0.2,0.5-0.2c0.2,0,0.4,0.1,0.5,0.2c0.1,0.1,0.2,0.3,0.2,0.6
			c0,0.3-0.1,0.5-0.2,0.6c-0.1,0.1-0.3,0.2-0.5,0.2c-0.2,0-0.4-0.1-0.5-0.2C74.8,79.9,74.7,79.7,74.7,79.4z"/>
		<path d="M84.8,83.7h-1v-7.8H81V75h6.5v0.9h-2.7V83.7z"/>
		<path d="M91.8,83.8c-1,0-1.7-0.3-2.3-0.9c-0.6-0.6-0.8-1.4-0.8-2.4c0-1,0.3-1.9,0.8-2.5c0.5-0.6,1.2-0.9,2.1-0.9
			c0.8,0,1.5,0.3,1.9,0.8c0.5,0.5,0.7,1.2,0.7,2.1v0.6h-4.5c0,0.8,0.2,1.3,0.6,1.7c0.4,0.4,0.9,0.6,1.5,0.6c0.7,0,1.4-0.1,2.1-0.4
			v0.9c-0.3,0.2-0.7,0.3-1,0.3C92.6,83.8,92.2,83.8,91.8,83.8z M91.5,77.9c-0.5,0-0.9,0.2-1.2,0.5c-0.3,0.3-0.5,0.8-0.5,1.4h3.4
			c0-0.6-0.1-1.1-0.4-1.4C92.4,78,92,77.9,91.5,77.9z"/>
		<path d="M98.8,83.8c-0.9,0-1.7-0.3-2.2-0.9c-0.5-0.6-0.8-1.4-0.8-2.5c0-1.1,0.3-1.9,0.8-2.5c0.5-0.6,1.3-0.9,2.2-0.9
			c0.3,0,0.6,0,0.9,0.1c0.3,0.1,0.6,0.1,0.7,0.2l-0.3,0.8c-0.2-0.1-0.5-0.2-0.7-0.2c-0.3-0.1-0.5-0.1-0.7-0.1c-1.3,0-2,0.8-2,2.5
			c0,0.8,0.2,1.4,0.5,1.8c0.3,0.4,0.8,0.6,1.4,0.6c0.5,0,1.1-0.1,1.7-0.4v0.9C100,83.7,99.5,83.8,98.8,83.8z"/>
		<path d="M106.8,83.7v-4.2c0-0.5-0.1-0.9-0.4-1.2c-0.2-0.3-0.6-0.4-1.1-0.4c-0.7,0-1.2,0.2-1.5,0.6c-0.3,0.4-0.5,1-0.5,1.8v3.4h-1
			v-9.2h1v2.8c0,0.3,0,0.6,0,0.8h0.1c0.2-0.3,0.5-0.6,0.8-0.7c0.4-0.2,0.8-0.3,1.2-0.3c0.8,0,1.4,0.2,1.8,0.6c0.4,0.4,0.6,1,0.6,1.8
			v4.2H106.8z"/>
		<path d="M114.6,83.7v-4.2c0-0.5-0.1-0.9-0.4-1.2c-0.2-0.3-0.6-0.4-1.1-0.4c-0.7,0-1.2,0.2-1.5,0.6c-0.3,0.4-0.5,1-0.5,1.8v3.4h-1
			v-6.5h0.8l0.2,0.9h0c0.2-0.3,0.5-0.6,0.8-0.7c0.4-0.2,0.8-0.3,1.2-0.3c0.8,0,1.4,0.2,1.8,0.6c0.4,0.4,0.6,1,0.6,1.8v4.2H114.6z"/>
		<path d="M123.6,80.4c0,1.1-0.3,1.9-0.8,2.5c-0.5,0.6-1.3,0.9-2.2,0.9c-0.6,0-1.1-0.1-1.5-0.4c-0.5-0.3-0.8-0.7-1-1.2
			c-0.2-0.5-0.4-1.1-0.4-1.8c0-1.1,0.3-1.9,0.8-2.5c0.5-0.6,1.3-0.9,2.2-0.9c0.9,0,1.6,0.3,2.2,0.9
			C123.3,78.6,123.6,79.4,123.6,80.4z M118.7,80.4c0,0.8,0.2,1.5,0.5,1.9c0.3,0.4,0.8,0.7,1.5,0.7c0.6,0,1.1-0.2,1.5-0.6
			c0.3-0.4,0.5-1.1,0.5-1.9c0-0.8-0.2-1.5-0.5-1.9c-0.3-0.4-0.8-0.6-1.5-0.6c-0.6,0-1.1,0.2-1.5,0.6
			C118.8,78.9,118.7,79.6,118.7,80.4z"/>
		<path d="M126.7,83.7h-1v-9.2h1V83.7z"/>
		<path d="M134.8,80.4c0,1.1-0.3,1.9-0.8,2.5c-0.5,0.6-1.3,0.9-2.2,0.9c-0.6,0-1.1-0.1-1.5-0.4c-0.5-0.3-0.8-0.7-1-1.2
			c-0.2-0.5-0.4-1.1-0.4-1.8c0-1.1,0.3-1.9,0.8-2.5c0.5-0.6,1.3-0.9,2.2-0.9c0.9,0,1.6,0.3,2.2,0.9
			C134.5,78.6,134.8,79.4,134.8,80.4z M129.8,80.4c0,0.8,0.2,1.5,0.5,1.9c0.3,0.4,0.8,0.7,1.5,0.7c0.6,0,1.1-0.2,1.5-0.6
			c0.3-0.4,0.5-1.1,0.5-1.9c0-0.8-0.2-1.5-0.5-1.9c-0.3-0.4-0.8-0.6-1.5-0.6c-0.6,0-1.1,0.2-1.5,0.6C130,78.9,129.8,79.6,129.8,80.4
			z"/>
		<path d="M142.2,77.2v0.6l-1.2,0.1c0.1,0.1,0.2,0.3,0.3,0.5c0.1,0.2,0.1,0.5,0.1,0.8c0,0.6-0.2,1.1-0.7,1.5c-0.4,0.4-1,0.6-1.8,0.6
			c-0.2,0-0.4,0-0.5,0c-0.4,0.2-0.6,0.5-0.6,0.8c0,0.2,0.1,0.3,0.2,0.4c0.1,0.1,0.4,0.1,0.8,0.1h1.2c0.7,0,1.2,0.1,1.6,0.4
			c0.4,0.3,0.6,0.7,0.6,1.3c0,0.7-0.3,1.3-0.9,1.6c-0.6,0.4-1.4,0.6-2.5,0.6c-0.9,0-1.5-0.2-2-0.5c-0.5-0.3-0.7-0.8-0.7-1.3
			c0-0.4,0.1-0.7,0.4-1c0.3-0.3,0.6-0.5,1.1-0.6c-0.2-0.1-0.3-0.2-0.4-0.4c-0.1-0.2-0.2-0.3-0.2-0.6c0-0.2,0.1-0.4,0.2-0.6
			c0.1-0.2,0.3-0.4,0.6-0.5c-0.3-0.1-0.6-0.4-0.8-0.7c-0.2-0.3-0.3-0.7-0.3-1.1c0-0.7,0.2-1.3,0.6-1.6c0.4-0.4,1-0.6,1.8-0.6
			c0.3,0,0.6,0,0.9,0.1H142.2z M137,84.8c0,0.4,0.1,0.6,0.4,0.8c0.3,0.2,0.7,0.3,1.3,0.3c0.8,0,1.4-0.1,1.8-0.4
			c0.4-0.2,0.6-0.6,0.6-1c0-0.4-0.1-0.6-0.3-0.7c-0.2-0.1-0.6-0.2-1.2-0.2h-1.2c-0.4,0-0.8,0.1-1,0.3C137.1,84.1,137,84.4,137,84.8z
			 M137.5,79.2c0,0.5,0.1,0.8,0.4,1c0.3,0.2,0.6,0.4,1.1,0.4c1,0,1.4-0.5,1.4-1.4c0-1-0.5-1.5-1.5-1.5c-0.5,0-0.8,0.1-1.1,0.4
			C137.6,78.4,137.5,78.8,137.5,79.2z"/>
		<path d="M142.8,77.2h1.1l1.4,3.7c0.3,0.8,0.5,1.5,0.6,1.8h0c0.1-0.2,0.2-0.5,0.3-1c0.2-0.5,0.7-2,1.6-4.5h1.1l-2.8,7.4
			c-0.3,0.7-0.6,1.3-1,1.6c-0.4,0.3-0.8,0.5-1.4,0.5c-0.3,0-0.6,0-0.9-0.1v-0.8c0.2,0,0.5,0.1,0.7,0.1c0.7,0,1.2-0.4,1.4-1.1
			l0.4-0.9L142.8,77.2z"/>
		<path d="M153.7,79.4c0-0.3,0.1-0.5,0.2-0.6c0.1-0.1,0.3-0.2,0.5-0.2c0.2,0,0.4,0.1,0.5,0.2c0.1,0.1,0.2,0.3,0.2,0.6
			c0,0.3-0.1,0.5-0.2,0.6c-0.1,0.1-0.3,0.2-0.5,0.2c-0.2,0-0.4-0.1-0.5-0.2C153.8,79.9,153.7,79.7,153.7,79.4z"/>
		<path d="M161.1,83.7V75h1v8.7H161.1z"/>
		<path d="M169.2,83.7v-4.2c0-0.5-0.1-0.9-0.4-1.2c-0.2-0.3-0.6-0.4-1.1-0.4c-0.7,0-1.2,0.2-1.5,0.6c-0.3,0.4-0.5,1-0.5,1.8v3.4h-1
			v-6.5h0.8l0.2,0.9h0c0.2-0.3,0.5-0.6,0.8-0.7c0.4-0.2,0.8-0.3,1.2-0.3c0.8,0,1.4,0.2,1.8,0.6c0.4,0.4,0.6,1,0.6,1.8v4.2H169.2z"/>
		<path d="M176.8,81.9c0,0.6-0.2,1.1-0.7,1.4c-0.5,0.3-1.1,0.5-1.9,0.5c-0.9,0-1.5-0.1-2-0.4v-0.9c0.3,0.2,0.6,0.3,1,0.4
			c0.4,0.1,0.7,0.1,1,0.1c0.5,0,0.9-0.1,1.2-0.2c0.3-0.2,0.4-0.4,0.4-0.8c0-0.3-0.1-0.5-0.3-0.7c-0.2-0.2-0.6-0.4-1.3-0.6
			c-0.6-0.2-1-0.4-1.3-0.6c-0.3-0.2-0.4-0.4-0.6-0.6c-0.1-0.2-0.2-0.5-0.2-0.8c0-0.5,0.2-0.9,0.6-1.3c0.4-0.3,1-0.5,1.8-0.5
			c0.7,0,1.4,0.1,2.1,0.4l-0.4,0.8c-0.7-0.3-1.2-0.4-1.8-0.4c-0.5,0-0.8,0.1-1.1,0.2s-0.4,0.3-0.4,0.6c0,0.2,0,0.3,0.1,0.4
			c0.1,0.1,0.2,0.2,0.4,0.4c0.2,0.1,0.6,0.3,1.1,0.5c0.8,0.3,1.3,0.6,1.6,0.8C176.6,81.1,176.8,81.5,176.8,81.9z"/>
		<path d="M178.6,75.4c0-0.2,0.1-0.4,0.2-0.5c0.1-0.1,0.2-0.2,0.4-0.2c0.2,0,0.3,0.1,0.4,0.2c0.1,0.1,0.2,0.3,0.2,0.5
			s-0.1,0.4-0.2,0.5c-0.1,0.1-0.3,0.2-0.4,0.2c-0.2,0-0.3-0.1-0.4-0.2C178.7,75.8,178.6,75.6,178.6,75.4z M179.7,83.7h-1v-6.5h1
			V83.7z"/>
		<path d="M187.5,77.2v0.6l-1.2,0.1c0.1,0.1,0.2,0.3,0.3,0.5c0.1,0.2,0.1,0.5,0.1,0.8c0,0.6-0.2,1.1-0.7,1.5c-0.4,0.4-1,0.6-1.8,0.6
			c-0.2,0-0.4,0-0.5,0c-0.4,0.2-0.6,0.5-0.6,0.8c0,0.2,0.1,0.3,0.2,0.4c0.1,0.1,0.4,0.1,0.8,0.1h1.2c0.7,0,1.2,0.1,1.6,0.4
			c0.4,0.3,0.6,0.7,0.6,1.3c0,0.7-0.3,1.3-0.9,1.6c-0.6,0.4-1.4,0.6-2.5,0.6c-0.9,0-1.5-0.2-2-0.5c-0.5-0.3-0.7-0.8-0.7-1.3
			c0-0.4,0.1-0.7,0.4-1c0.3-0.3,0.6-0.5,1.1-0.6c-0.2-0.1-0.3-0.2-0.4-0.4c-0.1-0.2-0.2-0.3-0.2-0.6c0-0.2,0.1-0.4,0.2-0.6
			c0.1-0.2,0.3-0.4,0.6-0.5c-0.3-0.1-0.6-0.4-0.8-0.7c-0.2-0.3-0.3-0.7-0.3-1.1c0-0.7,0.2-1.3,0.6-1.6c0.4-0.4,1-0.6,1.8-0.6
			c0.3,0,0.6,0,0.9,0.1H187.5z M182.3,84.8c0,0.4,0.1,0.6,0.4,0.8c0.3,0.2,0.7,0.3,1.3,0.3c0.8,0,1.4-0.1,1.8-0.4
			c0.4-0.2,0.6-0.6,0.6-1c0-0.4-0.1-0.6-0.3-0.7c-0.2-0.1-0.6-0.2-1.2-0.2h-1.2c-0.4,0-0.8,0.1-1,0.3
			C182.4,84.1,182.3,84.4,182.3,84.8z M182.8,79.2c0,0.5,0.1,0.8,0.4,1c0.3,0.2,0.6,0.4,1.1,0.4c1,0,1.4-0.5,1.4-1.4
			c0-1-0.5-1.5-1.5-1.5c-0.5,0-0.8,0.1-1.1,0.4C183,78.4,182.8,78.8,182.8,79.2z"/>
		<path d="M193.6,83.7v-4.2c0-0.5-0.1-0.9-0.4-1.2c-0.2-0.3-0.6-0.4-1.1-0.4c-0.7,0-1.2,0.2-1.5,0.6c-0.3,0.4-0.5,1-0.5,1.8v3.4h-1
			v-9.2h1v2.8c0,0.3,0,0.6,0,0.8h0.1c0.2-0.3,0.5-0.6,0.8-0.7c0.4-0.2,0.8-0.3,1.2-0.3c0.8,0,1.4,0.2,1.8,0.6c0.4,0.4,0.6,1,0.6,1.8
			v4.2H193.6z"/>
		<path d="M199.1,83c0.2,0,0.3,0,0.5,0c0.2,0,0.3-0.1,0.4-0.1v0.8c-0.1,0.1-0.3,0.1-0.5,0.1c-0.2,0-0.4,0.1-0.6,0.1
			c-1.3,0-1.9-0.7-1.9-2v-3.9h-0.9v-0.5l0.9-0.4l0.4-1.4h0.6v1.5h1.9v0.8h-1.9v3.8c0,0.4,0.1,0.7,0.3,0.9
			C198.5,82.9,198.8,83,199.1,83z"/>
	</g>
	<path fill="#00486E" d="M197.9,58.2c1.1,0,2.1-1,2.1-2.1v-5.6l0,0c0-1.2-0.9-2.1-2.1-2.1v0H163v-9.1h34.9l0,0c1.1,0,2.1-1,2.1-2.1
		v0v-4.8V19.1v-5.6v0l0,0c0,0,0,0,0,0c0-0.1,0-0.1,0-0.2c0,0,0,0,0,0c0-0.1,0-0.1,0-0.2c0,0,0,0,0,0c0-0.1,0-0.1,0-0.2c0,0,0,0,0,0
		c0-0.1,0-0.1-0.1-0.2c0,0,0,0,0,0c0-0.1,0-0.1-0.1-0.2c0,0,0,0,0,0c0,0-0.1-0.1-0.1-0.1c0,0,0,0,0-0.1c0,0-0.1-0.1-0.1-0.1
		c0,0,0,0-0.1-0.1c0,0-0.1-0.1-0.1-0.1c0,0-0.1-0.1-0.1-0.1c0,0,0,0-0.1-0.1c0,0-0.1-0.1-0.1-0.1c0,0,0,0-0.1,0c0,0-0.1-0.1-0.1-0.1
		c0,0,0,0,0,0c-0.1,0-0.1-0.1-0.2-0.1c0,0,0,0,0,0c-0.1,0-0.1,0-0.2-0.1c0,0,0,0,0,0c-0.1,0-0.1,0-0.2,0c0,0,0,0,0,0
		c-0.1,0-0.1,0-0.2,0c0,0,0,0,0,0c-0.1,0-0.1,0-0.2,0c0,0,0,0,0,0l0,0h0h-5.6h-31.3H157h-1.8h0l0,0c0,0,0,0,0,0c0,0-0.1,0-0.1,0
		c-1.1,0.1-2,1-2,2.1h0v42.5c0,1.2,0.9,2.1,2.1,2.1h0.1h5.6h0L197.9,58.2L197.9,58.2z M163,21.3h27.1v8.9H163V21.3z"/>
</g>
</svg>
